<svg width="24" height="24" viewBox="0 0 24 24" fill="none" xmlns="http://www.w3.org/2000/svg">
<path d="M2.475 24C1.775 24 1.1875 23.7625 0.7125 23.2875C0.2375 22.8125 0 22.225 0 21.525C0 20.825 0.2375 20.2375 0.7125 19.7625C1.1875 19.2875 1.775 19.05 2.475 19.05C3.175 19.05 3.7625 19.2875 4.2375 19.7625C4.7125 20.2375 4.95 20.825 4.95 21.525C4.95 22.225 4.7125 22.8125 4.2375 23.2875C3.7625 23.7625 3.175 24 2.475 24V24ZM12 24C11.3 24 10.7125 23.7625 10.2375 23.2875C9.7625 22.8125 9.525 22.225 9.525 21.525C9.525 20.825 9.7625 20.2375 10.2375 19.7625C10.7125 19.2875 11.3 19.05 12 19.05C12.7 19.05 13.2875 19.2875 13.7625 19.7625C14.2375 20.2375 14.475 20.825 14.475 21.525C14.475 22.225 14.2375 22.8125 13.7625 23.2875C13.2875 23.7625 12.7 24 12 24ZM21.525 24C20.825 24 20.2375 23.7625 19.7625 23.2875C19.2875 22.8125 19.05 22.225 19.05 21.525C19.05 20.825 19.2875 20.2375 19.7625 19.7625C20.2375 19.2875 20.825 19.05 21.525 19.05C22.225 19.05 22.8125 19.2875 23.2875 19.7625C23.7625 20.2375 24 20.825 24 21.525C24 22.225 23.7625 22.8125 23.2875 23.2875C22.8125 23.7625 22.225 24 21.525 24ZM2.475 14.475C1.775 14.475 1.1875 14.2375 0.7125 13.7625C0.2375 13.2875 0 12.7 0 12C0 11.3 0.2375 10.7125 0.7125 10.2375C1.1875 9.7625 1.775 9.525 2.475 9.525C3.175 9.525 3.7625 9.7625 4.2375 10.2375C4.7125 10.7125 4.95 11.3 4.95 12C4.95 12.7 4.7125 13.2875 4.2375 13.7625C3.7625 14.2375 3.175 14.475 2.475 14.475V14.475ZM12 14.475C11.3 14.475 10.7125 14.2375 10.2375 13.7625C9.7625 13.2875 9.525 12.7 9.525 12C9.525 11.3 9.7625 10.7125 10.2375 10.2375C10.7125 9.7625 11.3 9.525 12 9.525C12.7 9.525 13.2875 9.7625 13.7625 10.2375C14.2375 10.7125 14.475 11.3 14.475 12C14.475 12.7 14.2375 13.2875 13.7625 13.7625C13.2875 14.2375 12.7 14.475 12 14.475ZM21.525 14.475C20.825 14.475 20.2375 14.2375 19.7625 13.7625C19.2875 13.2875 19.05 12.7 19.05 12C19.05 11.3 19.2875 10.7125 19.7625 10.2375C20.2375 9.7625 20.825 9.525 21.525 9.525C22.225 9.525 22.8125 9.7625 23.2875 10.2375C23.7625 10.7125 24 11.3 24 12C24 12.7 23.7625 13.2875 23.2875 13.7625C22.8125 14.2375 22.225 14.475 21.525 14.475ZM2.475 4.95C1.775 4.95 1.1875 4.7125 0.7125 4.2375C0.2375 3.7625 0 3.175 0 2.475C0 1.775 0.2375 1.1875 0.7125 0.7125C1.1875 0.2375 1.775 0 2.475 0C3.175 0 3.7625 0.2375 4.2375 0.7125C4.7125 1.1875 4.95 1.775 4.95 2.475C4.95 3.175 4.7125 3.7625 4.2375 4.2375C3.7625 4.7125 3.175 4.95 2.475 4.95V4.95ZM12 4.95C11.3 4.95 10.7125 4.7125 10.2375 4.2375C9.7625 3.7625 9.525 3.175 9.525 2.475C9.525 1.775 9.7625 1.1875 10.2375 0.7125C10.7125 0.2375 11.3 0 12 0C12.7 0 13.2875 0.2375 13.7625 0.7125C14.2375 1.1875 14.475 1.775 14.475 2.475C14.475 3.175 14.2375 3.7625 13.7625 4.2375C13.2875 4.7125 12.7 4.95 12 4.95V4.95ZM21.525 4.95C20.825 4.95 20.2375 4.7125 19.7625 4.2375C19.2875 3.7625 19.05 3.175 19.05 2.475C19.05 1.775 19.2875 1.1875 19.7625 0.7125C20.2375 0.2375 20.825 0 21.525 0C22.225 0 22.8125 0.2375 23.2875 0.7125C23.7625 1.1875 24 1.775 24 2.475C24 3.175 23.7625 3.7625 23.2875 4.2375C22.8125 4.7125 22.225 4.95 21.525 4.95V4.95Z" fill="white"/>
</svg>
