<svg width="27" height="27" viewBox="0 0 27 27" fill="none" xmlns="http://www.w3.org/2000/svg">
<path d="M11.5087 19.6425L21.06 10.0913L19.5075 8.5725L11.5087 16.5712L7.45875 12.5212L5.94 14.04L11.5087 19.6425ZM13.5 27C11.655 27 9.91125 26.6456 8.26875 25.9369C6.62625 25.2281 5.19188 24.2606 3.96563 23.0344C2.73938 21.8081 1.77187 20.3738 1.06312 18.7313C0.354375 17.0888 0 15.345 0 13.5C0 11.6325 0.354375 9.8775 1.06312 8.235C1.77187 6.5925 2.73938 5.16375 3.96563 3.94875C5.19188 2.73375 6.62625 1.77187 8.26875 1.06312C9.91125 0.354375 11.655 0 13.5 0C15.3675 0 17.1225 0.354375 18.765 1.06312C20.4075 1.77187 21.8363 2.73375 23.0513 3.94875C24.2663 5.16375 25.2281 6.5925 25.9369 8.235C26.6456 9.8775 27 11.6325 27 13.5C27 15.345 26.6456 17.0888 25.9369 18.7313C25.2281 20.3738 24.2663 21.8081 23.0513 23.0344C21.8363 24.2606 20.4075 25.2281 18.765 25.9369C17.1225 26.6456 15.3675 27 13.5 27ZM13.5 24.975C16.695 24.975 19.4062 23.8556 21.6337 21.6169C23.8612 19.3781 24.975 16.6725 24.975 13.5C24.975 10.305 23.8612 7.59375 21.6337 5.36625C19.4062 3.13875 16.695 2.025 13.5 2.025C10.3275 2.025 7.62188 3.13875 5.38313 5.36625C3.14438 7.59375 2.025 10.305 2.025 13.5C2.025 16.6725 3.14438 19.3781 5.38313 21.6169C7.62188 23.8556 10.3275 24.975 13.5 24.975Z" fill="#535C68"/>
</svg>
