<svg width="30" height="24" viewBox="0 0 30 24" fill="none" xmlns="http://www.w3.org/2000/svg">
<path d="M19.0875 11.7L25.0875 8.25L19.0875 4.8L13.0875 8.25L19.0875 11.7ZM19.0875 16.275L23.2125 13.875V10.725L19.0875 13.125L14.9625 10.725V13.875L19.0875 16.275ZM2.25 0H27.75C28.325 0 28.8438 0.23125 29.3063 0.69375C29.7688 1.15625 30 1.675 30 2.25V21.75C30 22.325 29.7688 22.8438 29.3063 23.3063C28.8438 23.7688 28.325 24 27.75 24H15V21.75H27.75V2.25H2.25V8.85H0V2.25C0 1.675 0.225 1.15625 0.675 0.69375C1.125 0.23125 1.65 0 2.25 0ZM0 24H3.75C3.75 22.925 3.3875 22.0063 2.6625 21.2438C1.9375 20.4813 1.05 20.1 0 20.1V24ZM6 24H8.25C8.25 21.675 7.45 19.6938 5.85 18.0563C4.25 16.4188 2.3 15.6 0 15.6V17.85C1.675 17.85 3.09375 18.45 4.25625 19.65C5.41875 20.85 6 22.3 6 24ZM0 11.1V13.35C1.475 13.35 2.85 13.6312 4.125 14.1937C5.4 14.7562 6.50625 15.5188 7.44375 16.4813C8.38125 17.4438 9.125 18.5687 9.675 19.8562C10.225 21.1437 10.5 22.525 10.5 24H12.75C12.75 22.225 12.4188 20.5563 11.7563 18.9938C11.0938 17.4313 10.1875 16.0625 9.0375 14.8875C7.8875 13.7125 6.5375 12.7875 4.9875 12.1125C3.4375 11.4375 1.775 11.1 0 11.1Z" fill="black"/>
</svg>
