<svg width="12" height="24" viewBox="0 0 12 24" fill="none" xmlns="http://www.w3.org/2000/svg">
<path d="M6.36667 21.2333V23.5H5.36667V21.2V20.7801L4.95307 20.7075C3.76432 20.499 2.81773 20.0513 2.08809 19.3816C1.45055 18.7965 0.963138 18.0775 0.628374 17.2158L1.58698 16.8221C1.97843 17.7253 2.5125 18.4452 3.20405 18.953C4.01219 19.5465 4.97503 19.8333 6.06667 19.8333C7.21864 19.8333 8.21135 19.544 9.00609 18.9287C9.82703 18.2931 10.2333 17.4086 10.2333 16.3333C10.2333 15.2436 9.8876 14.3377 9.14543 13.69C8.45251 13.0852 7.21747 12.5158 5.5229 11.9584L5.52291 11.9584L5.51881 11.957C3.96574 11.4609 2.85867 10.8186 2.1487 10.0587C1.45497 9.31608 1.1 8.38653 1.1 7.23333C1.1 6.12984 1.45145 5.23477 2.14412 4.51283C2.83933 3.78825 3.74931 3.3666 4.91036 3.26475L5.36667 3.22473V2.76667V0.5H6.36667V2.76667V3.21419L6.81145 3.26361C7.73254 3.36595 8.50631 3.66476 9.14902 4.14926C9.66868 4.54101 10.0897 5.01775 10.4134 5.58363L9.47118 5.98742C9.15466 5.41983 8.7496 4.96862 8.24589 4.65782C7.62038 4.27187 6.83696 4.1 5.93333 4.1C4.83805 4.1 3.90677 4.35019 3.19303 4.90532C2.46401 5.47234 2.1 6.2551 2.1 7.2C2.1 8.19865 2.50442 9.02693 3.29167 9.64361C4.03661 10.2272 5.34809 10.7875 7.15246 11.3444C8.60537 11.7931 9.62373 12.423 10.2639 13.201C10.9002 13.9743 11.2333 14.9616 11.2333 16.2C11.2333 17.4957 10.8564 18.4909 10.1395 19.2369C9.41691 19.9888 8.32156 20.5053 6.79115 20.7391L6.36667 20.8039V21.2333Z" stroke="black"/>
</svg>
