<svg width="24" height="24" viewBox="0 0 24 24" fill="none" xmlns="http://www.w3.org/2000/svg">
<path d="M5.85 24C5.06667 24 4.39583 23.7087 3.8375 23.1261C3.27917 22.5435 3 21.8435 3 21.0261C3 20.1913 3.27917 19.487 3.8375 18.913C4.39583 18.3391 5.06667 18.0522 5.85 18.0522C6.08333 18.0522 6.2875 18.0739 6.4625 18.1174C6.6375 18.1609 6.81667 18.2261 7 18.313L9.125 15.5478C8.80833 15.1478 8.56667 14.6913 8.4 14.1783C8.23333 13.6652 8.19167 13.1304 8.275 12.5739L5.25 11.5043C5 11.9391 4.67083 12.2783 4.2625 12.5217C3.85417 12.7652 3.38333 12.887 2.85 12.887C2.06667 12.887 1.39583 12.5957 0.8375 12.013C0.279167 11.4304 0 10.7304 0 9.91304C0 9.07826 0.279167 8.37391 0.8375 7.8C1.39583 7.22609 2.06667 6.93913 2.85 6.93913C3.65 6.93913 4.325 7.22609 4.875 7.8C5.425 8.37391 5.7 9.07826 5.7 9.91304V10.0174L8.75 11.113C9.05 10.5565 9.4125 10.1304 9.8375 9.83478C10.2625 9.53913 10.7333 9.33043 11.25 9.2087V5.84348C10.6 5.65217 10.0875 5.27826 9.7125 4.72174C9.3375 4.16522 9.15 3.58261 9.15 2.97391C9.15 2.13913 9.42917 1.43478 9.9875 0.86087C10.5458 0.286956 11.2167 0 12 0C12.8 0 13.475 0.286956 14.025 0.86087C14.575 1.43478 14.85 2.13913 14.85 2.97391C14.85 3.58261 14.6583 4.16522 14.275 4.72174C13.8917 5.27826 13.3833 5.65217 12.75 5.84348V9.2087C13.2667 9.33043 13.7417 9.53913 14.175 9.83478C14.6083 10.1304 14.975 10.5565 15.275 11.113L18.3 10.0174V9.91304C18.3 9.07826 18.5792 8.37391 19.1375 7.8C19.6958 7.22609 20.3667 6.93913 21.15 6.93913C21.95 6.93913 22.625 7.22609 23.175 7.8C23.725 8.37391 24 9.07826 24 9.91304C24 10.7304 23.725 11.4304 23.175 12.013C22.625 12.5957 21.95 12.887 21.15 12.887C20.6167 12.887 20.1417 12.7652 19.725 12.5217C19.3083 12.2783 18.9833 11.9391 18.75 11.5043L15.725 12.5739C15.8083 13.1304 15.7708 13.6652 15.6125 14.1783C15.4542 14.6913 15.2083 15.1478 14.875 15.5478L17 18.313C17.1833 18.2261 17.3625 18.1609 17.5375 18.1174C17.7125 18.0739 17.9167 18.0522 18.15 18.0522C18.95 18.0522 19.625 18.3391 20.175 18.913C20.725 19.487 21 20.1913 21 21.0261C21 21.8435 20.725 22.5435 20.175 23.1261C19.625 23.7087 18.95 24 18.15 24C17.3667 24 16.6958 23.7087 16.1375 23.1261C15.5792 22.5435 15.3 21.8435 15.3 21.0261C15.3 20.6783 15.3458 20.3652 15.4375 20.087C15.5292 19.8087 15.6583 19.5391 15.825 19.2783L13.7 16.513C13.1667 16.8087 12.5958 16.9565 11.9875 16.9565C11.3792 16.9565 10.8083 16.8087 10.275 16.513L8.175 19.3043C8.34167 19.5652 8.47083 19.8304 8.5625 20.1C8.65417 20.3696 8.7 20.6783 8.7 21.0261C8.7 21.8435 8.425 22.5435 7.875 23.1261C7.325 23.7087 6.65 24 5.85 24ZM2.85 11.3217C3.23333 11.3217 3.55417 11.187 3.8125 10.9174C4.07083 10.6478 4.2 10.313 4.2 9.91304C4.2 9.51304 4.07083 9.17826 3.8125 8.9087C3.55417 8.63913 3.23333 8.50435 2.85 8.50435C2.46667 8.50435 2.14583 8.63913 1.8875 8.9087C1.62917 9.17826 1.5 9.51304 1.5 9.91304C1.5 10.313 1.62917 10.6478 1.8875 10.9174C2.14583 11.187 2.46667 11.3217 2.85 11.3217ZM5.85 22.4348C6.23333 22.4348 6.55417 22.3 6.8125 22.0304C7.07083 21.7609 7.2 21.4261 7.2 21.0261C7.2 20.6261 7.07083 20.2913 6.8125 20.0217C6.55417 19.7522 6.23333 19.6174 5.85 19.6174C5.46667 19.6174 5.14583 19.7522 4.8875 20.0217C4.62917 20.2913 4.5 20.6261 4.5 21.0261C4.5 21.4261 4.62917 21.7609 4.8875 22.0304C5.14583 22.3 5.46667 22.4348 5.85 22.4348ZM12 4.38261C12.3833 4.38261 12.7042 4.24783 12.9625 3.97826C13.2208 3.7087 13.35 3.37391 13.35 2.97391C13.35 2.57391 13.2208 2.23913 12.9625 1.96957C12.7042 1.7 12.3833 1.56522 12 1.56522C11.6167 1.56522 11.2958 1.7 11.0375 1.96957C10.7792 2.23913 10.65 2.57391 10.65 2.97391C10.65 3.37391 10.7792 3.7087 11.0375 3.97826C11.2958 4.24783 11.6167 4.38261 12 4.38261ZM12.025 15.3913C12.6417 15.3913 13.1667 15.1609 13.6 14.7C14.0333 14.2391 14.25 13.6783 14.25 13.0174C14.25 12.3739 14.0333 11.8261 13.6 11.3739C13.1667 10.9217 12.6333 10.6957 12 10.6957C11.3833 10.6957 10.8542 10.9217 10.4125 11.3739C9.97083 11.8261 9.75 12.3826 9.75 13.0435C9.75 13.687 9.97083 14.2391 10.4125 14.7C10.8542 15.1609 11.3917 15.3913 12.025 15.3913ZM18.15 22.4348C18.5333 22.4348 18.8542 22.3 19.1125 22.0304C19.3708 21.7609 19.5 21.4261 19.5 21.0261C19.5 20.6261 19.3708 20.2913 19.1125 20.0217C18.8542 19.7522 18.5333 19.6174 18.15 19.6174C17.7667 19.6174 17.4458 19.7522 17.1875 20.0217C16.9292 20.2913 16.8 20.6261 16.8 21.0261C16.8 21.4261 16.9292 21.7609 17.1875 22.0304C17.4458 22.3 17.7667 22.4348 18.15 22.4348ZM21.15 11.3217C21.5333 11.3217 21.8542 11.187 22.1125 10.9174C22.3708 10.6478 22.5 10.313 22.5 9.91304C22.5 9.51304 22.3708 9.17826 22.1125 8.9087C21.8542 8.63913 21.5333 8.50435 21.15 8.50435C20.7667 8.50435 20.4458 8.63913 20.1875 8.9087C19.9292 9.17826 19.8 9.51304 19.8 9.91304C19.8 10.313 19.9292 10.6478 20.1875 10.9174C20.4458 11.187 20.7667 11.3217 21.15 11.3217Z" fill="#33455A"/>
</svg>
