<svg width="384" height="315" viewBox="0 0 384 315" fill="none" xmlns="http://www.w3.org/2000/svg">
<path fill-rule="evenodd" clip-rule="evenodd" d="M193.345 314.279L193.396 314.019C194.377 314.141 195.36 314.224 196.344 314.279H201.287C224.244 313.026 246.671 294.604 253.236 271.041C259.188 249.677 252.46 189.652 255.927 169.922C283.42 169.51 311.213 169.888 338.739 169.888C387.716 169.888 382.989 178.549 382.989 130.286C382.989 109.883 386.187 102.072 370.138 102.064C329.128 102.042 284.91 102.863 244.646 102.037L239.374 87.6333C247.735 85.225 349.509 71.3182 369.299 68.7387C387.247 66.3995 382.982 60.1081 382.989 22.5305C382.992 2.50318 384.13 4.76145 375.622 0H370.378C364.053 2.87282 299.686 10.0963 286.836 11.8148L162.485 28.5498C149.29 30.4664 136.541 24.8701 120.273 25.8815C91.9628 27.6416 48.2181 53.1545 30.0719 76.3359C-0.0328194 114.794 0.613115 139.22 0.613115 188.081C0.613115 211.181 -2.4634 259.816 5.16671 277.73C12.1679 294.167 30.4593 312.78 54.1702 314.279H60.3304C61.0852 314.232 61.8445 314.169 62.6087 314.086L62.6492 314.279H68.3868V272.694C68.1536 268.294 68.2844 263.801 68.3868 259.158V259.157C68.4333 257.049 68.4738 254.91 68.4715 252.735C68.4575 239.049 68.6669 232.701 76.7079 225.794C84.4812 219.118 95.3326 219.893 103.33 225.614C110.585 230.805 115.063 236.309 128.129 236.272C141.248 236.234 146.133 230.33 153.377 225.097C161.946 218.906 173.591 220.294 180.067 226.278C188.371 233.953 187.653 241.149 187.649 254.694C187.648 256.25 187.665 257.732 187.688 259.157H187.82V267.015C187.823 267.579 187.824 268.137 187.82 268.692V314.279H193.345V314.279ZM210.969 92.0818L212.489 101.958L226.822 102.028C225.465 97.547 222.799 93.7614 221.627 90.011C217.502 90.3715 214.137 90.4872 210.969 92.0818V92.0818ZM204.546 296.62C213.911 294.431 224.196 288.977 229.406 281.54C242.261 263.193 238.631 236.951 238.631 210.612C238.631 199.946 239.79 179.503 238.288 170.003L204.965 169.882L204.546 296.62ZM118.852 69.4462C108.24 72.1822 99.2716 77.2433 93.1292 86.4699C72.4449 117.54 98.5955 160.546 137.695 151.717C157.614 147.221 175.22 126.256 169.212 100.904C164.614 81.5017 144.284 62.8891 118.852 69.4462V69.4462ZM138.434 133.225C135.514 128.129 111.185 104.742 105.942 99.9096C105.75 100.085 105.489 100.127 105.418 100.487C105.347 100.843 105.012 100.935 104.92 101.075L102.863 106.872C102.449 110.027 102.511 113.054 103.141 116.173C106.744 134.018 129.429 140.621 138.434 133.225V133.225ZM117.412 88.3525L150.336 121.183L152.226 118.184C153.716 114.631 153.745 109.032 153.011 105.301C149.24 86.126 124.641 80.0504 117.412 88.3525V88.3525ZM68.4847 210.37C80.0346 206.445 85.7447 201.002 101.46 205.891C120.528 211.822 121.909 229.333 141.333 213.063C144.926 210.053 149.297 207.601 154.814 205.892C170.441 201.051 176.363 206.54 187.554 210.283L187.652 171.477C179.429 176.516 178.659 180.596 163.013 187.72C134.816 200.56 97.9934 196.67 74.2179 176.332C71.6135 174.105 71.5662 173.075 68.5872 171.609L68.4847 210.37V210.37ZM51.4481 296.545C52.7475 275.502 51.5989 250.681 51.5989 229.225C51.5989 206.694 51.5993 184.163 51.5989 161.633C51.5989 152.309 48.6732 136.545 60.4748 137.166C68.4292 137.584 68.7172 146.713 76.7899 155.19C88.7925 167.795 102.368 176.471 121.282 178.205C144.397 180.324 159.373 172.098 172.599 162.006C184.077 153.246 175.803 153.101 196.698 153.119C251.552 153.166 312.941 154.63 366.112 153.04L366.058 118.939C317.988 117.967 260.019 118.683 210.402 118.919C185.298 119.039 204.197 103.955 186.507 75.8302C180.212 65.8228 173.855 59.3042 164.29 52.9765C144.338 39.778 116.984 39.1555 94.5023 50.617C69.0112 63.6129 60.8701 66.5692 42.5065 87.7795C30.0798 102.133 18.6195 126.455 17.6304 151.846C16.5007 180.83 17.4914 211.782 17.4899 240.98C17.4891 256.809 16.8511 267.266 24.7258 278.77C29.7775 286.15 39.8832 294.552 51.4481 296.545V296.545ZM180.253 43.1097C204.645 66.4842 193.479 60.0231 205.515 74.9975L365.574 52.3045L366.152 18.2249L180.253 43.1097Z" fill="white"/>
</svg>
