<?xml version="1.0" encoding="UTF-8"?>
<!DOCTYPE svg PUBLIC "-//W3C//DTD SVG 1.1//EN" "http://www.w3.org/Graphics/SVG/1.1/DTD/svg11.dtd">
<!-- Creator: CorelDRAW 2021.5 -->
<svg xmlns="http://www.w3.org/2000/svg" xml:space="preserve" width="297mm" height="210mm" version="1.1" style="shape-rendering:geometricPrecision; text-rendering:geometricPrecision; image-rendering:optimizeQuality; fill-rule:evenodd; clip-rule:evenodd"
viewBox="0 0 29700 21000"
 xmlns:xlink="http://www.w3.org/1999/xlink"
 xmlns:xodm="http://www.corel.com/coreldraw/odm/2003">
 <defs>
  <style type="text/css">
   <![CDATA[
    .fil2 {fill:#FEFEFE}
    .fil0 {fill:#373435}
    .fil3 {fill:#FEFEFE;fill-rule:nonzero}
    .fil1 {fill:#373435;fill-rule:nonzero}
   ]]>
  </style>
 </defs>
 <g id="Camada_x0020_1">
  <metadata id="CorelCorpID_0Corel-Layer"/>
  <rect class="fil0" x="-14580.86" y="17388.62" width="44312.2" height="14669.56"/>
  <path class="fil0" d="M21555.05 14052.81l1.33 -6.88c25.96,3.22 51.98,5.43 78.02,6.88l130.77 0c607.41,-33.15 1200.8,-520.58 1374.48,-1144.01 157.48,-565.25 -20.52,-2153.42 71.21,-2675.43 727.43,-10.92 1462.78,-0.92 2191.08,-0.92 1295.84,0 1170.76,229.16 1170.76,-1047.8 0,-539.81 84.63,-746.49 -340.01,-746.71 -1085.04,-0.56 -2255,21.15 -3320.3,-0.69l-139.5 -381.11c221.22,-63.72 2913.99,-431.67 3437.61,-499.92 474.88,-61.89 362.03,-228.35 362.21,-1222.59 0.09,-529.89 30.2,-470.14 -194.93,-596.12l-138.73 0c-167.35,76.01 -1870.39,267.13 -2210.38,312.6l-3290.12 442.78c-349.12,50.71 -686.45,-97.36 -1116.86,-70.6 -749.05,46.57 -1906.46,721.6 -2386.58,1334.94 -796.52,1017.53 -779.43,1663.8 -779.43,2956.6 0,611.19 -81.4,1897.99 120.48,2371.96 185.24,434.88 669.2,927.37 1296.55,967.02l162.99 0c19.97,-1.25 40.06,-2.91 60.28,-5.12l1.07 5.12 151.81 0 0 -1100.28c-6.17,-116.41 -2.71,-235.28 0,-358.14l0 -0.02c1.23,-55.78 2.3,-112.36 2.24,-169.92 -0.37,-362.1 5.17,-530.07 217.92,-712.8 205.67,-176.65 492.78,-156.14 704.38,-4.76 191.96,137.33 310.42,282.95 656.15,281.97 347.1,-0.99 476.35,-157.21 668.02,-295.67 226.71,-163.79 534.82,-127.07 706.15,31.26 219.73,203.06 200.72,393.45 200.61,751.83 -0.01,41.18 0.43,80.39 1.05,118.09l3.48 0 0 207.91c0.09,14.93 0.1,29.7 0,44.36l0 1206.17 146.19 0zm466.3 -5878.97l40.22 261.32 379.21 1.84c-35.9,-118.56 -106.43,-218.72 -137.43,-317.95 -109.15,9.54 -198.18,12.6 -282,54.79zm-169.94 5411.75c247.78,-57.93 519.89,-202.24 657.75,-398.99 340.13,-485.43 244.07,-1179.75 244.07,-1876.64 0,-282.22 30.66,-823.1 -9.07,-1074.46l-881.66 -3.2 -11.09 3353.29zm-2267.32 -6010.65c-280.78,72.39 -518.07,206.3 -680.59,450.42 -547.27,822.07 144.63,1959.92 1179.15,1726.34 527.01,-118.98 992.85,-673.66 833.88,-1344.44 -121.65,-513.35 -659.55,-1005.81 -1332.44,-832.32zm518.1 1687.47c-77.25,-134.82 -720.95,-753.61 -859.68,-881.46 -5.09,4.63 -11.98,5.75 -13.88,15.29 -1.87,9.42 -10.72,11.83 -13.16,15.54l-54.43 153.39c-10.95,83.48 -9.3,163.55 7.36,246.08 95.33,472.15 695.54,646.86 933.79,451.16zm-556.2 -1187.24l871.12 868.65 50 -79.37c39.42,-93.99 40.18,-242.13 20.76,-340.86 -99.78,-507.33 -750.61,-668.08 -941.88,-448.42zm-1294.54 3228.39c305.59,-103.87 456.67,-247.88 872.48,-118.53 504.51,156.93 541.04,620.24 1054.97,189.76 95.05,-79.62 210.72,-144.51 356.68,-189.73 413.46,-128.08 570.16,17.16 866.24,116.2l2.61 -1026.75c-217.58,133.31 -237.95,241.26 -651.92,429.77 -746.04,339.71 -1720.31,236.79 -2349.37,-301.31 -68.91,-58.94 -70.16,-86.19 -148.98,-124.98l-2.71 1025.57zm-450.76 2280.04c34.38,-556.76 3.99,-1213.49 3.99,-1781.19 0,-596.13 0.01,-1192.25 0,-1788.37 0,-246.69 -77.41,-663.79 234.84,-647.35 210.46,11.07 218.08,252.59 431.67,476.9 317.57,333.5 676.76,563.06 1177.19,608.93 611.59,56.07 1007.83,-161.58 1357.75,-428.61 303.71,-231.77 84.79,-235.59 637.64,-235.12 1451.34,1.23 3075.59,39.96 4482.4,-2.09l-1.44 -902.26c-1271.84,-25.72 -2805.6,-6.78 -4118.39,-0.52 -664.2,3.17 -164.17,-395.94 -632.22,-1140.07 -166.55,-264.78 -334.75,-437.25 -587.83,-604.67 -527.9,-349.21 -1251.64,-365.68 -1846.46,-62.43 -674.45,343.85 -889.85,422.07 -1375.72,983.26 -328.79,379.77 -632.01,1023.29 -658.18,1695.1 -29.89,766.87 -3.68,1585.79 -3.72,2358.32 -0.02,418.83 -16.9,695.48 191.45,999.88 133.66,195.26 401.04,417.56 707.03,470.29zm3407.95 -6705.48c645.38,618.45 349.96,447.5 668.41,843.7l4234.88 -600.42 15.31 -901.69 -4918.6 658.41z"/>
  <path class="fil1" d="M-9141.7 11671.1l-1788.54 0 0 -3186.46 1717.25 0 0 449.03 -1188.57 0 0 901.86 1095.27 0 0 446.76 -1095.27 0 0 942.05 1259.86 0 0 446.76zm2410.51 -2275.5l-757.74 1151.4 749.4 1124.1 -598.46 0 -399.72 -704.65c-25.04,-42.47 -54.62,-97.84 -88.75,-164.59l-9.1 0c-6.07,13.65 -37.17,68.26 -93.3,164.59l-406.55 704.65 -595.43 0 772.92 -1115.75 -732.71 -1159.75 599.97 0 392.9 740.3c29.58,54.61 58.41,110.74 86.47,168.38l6.83 0 508.95 -908.68 564.32 0zm1577.68 2251.23c-100.12,50.06 -232.86,75.09 -397.45,75.09 -441.45,0 -662.17,-211.62 -662.17,-635.62l0 -1286.42 -380.01 0 0 -404.28 380.01 0 0 -526.4 515.78 -147.15 0 673.55 543.84 0 0 404.28 -543.84 0 0 1137.75c0,135.01 24.27,231.34 72.82,288.99 49.3,57.65 130.46,86.47 244.99,86.47 87.23,0 162.32,-25.03 226.03,-75.09l0 408.83zm1765.04 -1760.48c-62.2,-48.54 -152.46,-72.82 -269.27,-72.82 -152.46,0 -279.89,69.03 -382.29,206.32 -102.39,138.04 -153.21,325.39 -153.21,562.04l0 1089.21 -515.78 0 0 -2275.5 515.78 0 0 468.75 9.1 0c50.06,-160.04 127.43,-284.43 232.1,-374.7 104.67,-89.5 220.72,-134.25 349.67,-134.25 93.29,0 164.59,14.41 213.9,42.48l0 488.47zm2110.9 1784.75l-499.85 0 0 -355.74 -9.1 0c-157.01,273.06 -386.84,408.83 -690.99,408.83 -223.76,0 -398.98,-60.67 -525.65,-182.03 -126.66,-121.36 -189.62,-282.17 -189.62,-482.41 0,-429.31 247.27,-679.62 741.81,-750.92l675.83 -95.57c0,-324.63 -153.98,-486.95 -462.69,-486.95 -270.78,0 -515.02,94.05 -732.71,280.64l0 -451.31c239.69,-142.59 516.54,-213.13 830.56,-213.13 574.94,0 862.41,282.92 862.41,848.76l0 1479.83zm-497.57 -1118.03l-477.86 66.75c-147.91,19.72 -259.41,55.37 -334.5,107.71 -75.09,53.09 -112.26,144.87 -112.26,276.85 0,96.33 34.9,175.21 103.16,236.65 69.02,61.44 161.56,92.54 276.85,92.54 157.01,0 287.47,-55.37 389.87,-166.11 103.16,-109.99 154.74,-248.79 154.74,-416.42l0 -197.97zm2326.31 1093.76c-100.12,50.06 -232.86,75.09 -397.45,75.09 -441.45,0 -662.17,-211.62 -662.17,-635.62l0 -1286.42 -380.01 0 0 -404.28 380.01 0 0 -526.4 515.78 -147.15 0 673.55 543.84 0 0 404.28 -543.84 0 0 1137.75c0,135.01 24.27,231.34 72.82,288.99 49.3,57.65 130.46,86.47 244.99,86.47 87.23,0 162.32,-25.03 226.03,-75.09l0 408.83zm1426.74 77.36c-350.43,0 -631.07,-106.18 -840.42,-318.56 -210.1,-212.38 -314.77,-494.55 -314.77,-845.73 0,-382.29 109.22,-680.38 327.67,-895.79 218.45,-214.66 512.74,-321.6 883.65,-321.6 355.74,0 632.59,103.91 830.56,313.26 198.73,208.58 298.09,498.33 298.09,868.48 0,363.32 -106.95,653.83 -320.85,872.27 -214.65,218.45 -502.12,327.67 -863.93,327.67zm25.03 -1970.58c-201.76,0 -361.04,69.78 -477.85,210.87 -116.81,141.08 -175.97,334.49 -175.97,582.52 0,238.17 59.92,426.28 178.24,562.81 118.33,137.29 276.86,205.55 475.58,205.55 202.52,0 358.77,-67.5 467.24,-201.76 109.22,-135.01 163.83,-326.91 163.83,-575.7 0,-250.3 -54.61,-443.72 -163.83,-580.25 -108.47,-136.53 -264.72,-204.04 -467.24,-204.04zm3004.43 132.74c-62.2,-48.54 -152.46,-72.82 -269.27,-72.82 -152.46,0 -279.89,69.03 -382.29,206.32 -102.39,138.04 -153.21,325.39 -153.21,562.04l0 1089.21 -515.78 0 0 -2275.5 515.78 0 0 468.75 9.1 0c50.06,-160.04 127.43,-284.43 232.1,-374.7 104.67,-89.5 220.72,-134.25 349.67,-134.25 93.29,0 164.59,14.41 213.9,42.48l0 488.47zm2199.65 629.55l0 1155.2 -526.4 0 0 -3186.46 966.33 0c365.6,0 649.28,84.95 851.04,255.62 201.76,169.9 302.64,410.34 302.64,719.81 0,309.47 -105.43,562.81 -316.3,760.02 -210.1,197.21 -494.54,295.81 -853.31,295.81l-424 0zm0 -1595.88l0 1164.3 342.08 0c226.8,0 398.97,-52.34 518.06,-157.77 118.33,-104.67 177.49,-253.34 177.49,-444.48 0,-374.7 -217.69,-562.05 -653.07,-562.05l-384.56 0zm4835.44 2751.08l-577.98 0 -1521.55 -2342.25c-38.68,-59.16 -70.54,-120.6 -95.57,-184.31l-13.65 0c12.13,68.26 17.44,213.89 17.44,437.65l0 2088.91 -510.47 0 0 -3186.46 615.14 0 1471.49 2286.12c62.2,94.81 101.64,160.04 119.85,195.69l9.1 0c-15.17,-84.19 -22.76,-227.55 -22.76,-428.55l0 -2053.26 508.96 0 0 3186.46zm1316 -1155.2l0 1155.2 -526.4 0 0 -3186.46 966.33 0c365.6,0 649.28,84.95 851.04,255.62 201.76,169.9 302.64,410.34 302.64,719.81 0,309.47 -105.43,562.81 -316.3,760.02 -210.1,197.21 -494.54,295.81 -853.31,295.81l-424 0zm0 -1595.88l0 1164.3 342.08 0c226.8,0 398.97,-52.34 518.06,-157.77 118.33,-104.67 177.49,-253.34 177.49,-444.48 0,-374.7 -217.69,-562.05 -653.07,-562.05l-384.56 0z"/>
  <path class="fil2" d="M21555.05 27963.6l1.33 -6.88c25.96,3.22 51.98,5.43 78.02,6.88l130.77 0c607.41,-33.15 1200.8,-520.58 1374.48,-1144.01 157.48,-565.25 -20.52,-2153.42 71.21,-2675.43 727.43,-10.92 1462.78,-0.92 2191.08,-0.92 1295.84,0 1170.76,229.16 1170.76,-1047.8 0,-539.81 84.63,-746.49 -340.01,-746.71 -1085.04,-0.56 -2255,21.15 -3320.3,-0.69l-139.5 -381.11c221.22,-63.72 2913.99,-431.67 3437.61,-499.92 474.88,-61.89 362.03,-228.35 362.21,-1222.59 0.09,-529.89 30.2,-470.14 -194.93,-596.12l-138.73 0c-167.35,76.01 -1870.39,267.13 -2210.38,312.6l-3290.12 442.78c-349.12,50.71 -686.45,-97.36 -1116.86,-70.6 -749.05,46.57 -1906.46,721.6 -2386.58,1334.94 -796.52,1017.53 -779.43,1663.8 -779.43,2956.6 0,611.19 -81.4,1897.99 120.48,2371.96 185.24,434.88 669.2,927.37 1296.55,967.02l162.99 0c19.97,-1.25 40.06,-2.91 60.28,-5.12l1.07 5.12 151.81 0 0 -1100.28c-6.17,-116.41 -2.71,-235.28 0,-358.14l0 -0.02c1.23,-55.78 2.3,-112.36 2.24,-169.92 -0.37,-362.1 5.17,-530.07 217.92,-712.8 205.67,-176.65 492.78,-156.14 704.38,-4.76 191.96,137.33 310.42,282.95 656.15,281.97 347.1,-0.99 476.35,-157.21 668.02,-295.67 226.71,-163.79 534.82,-127.07 706.15,31.26 219.73,203.06 200.72,393.45 200.61,751.83 -0.01,41.18 0.43,80.39 1.05,118.09l3.48 0 0 207.91c0.09,14.93 0.1,29.7 0,44.36l0 1206.17 146.19 0zm466.3 -5878.97l40.22 261.32 379.21 1.84c-35.9,-118.56 -106.43,-218.72 -137.43,-317.95 -109.15,9.54 -198.18,12.6 -282,54.79zm-169.94 5411.75c247.78,-57.93 519.89,-202.24 657.75,-398.99 340.13,-485.43 244.07,-1179.75 244.07,-1876.64 0,-282.22 30.66,-823.1 -9.07,-1074.46l-881.66 -3.2 -11.09 3353.29zm-2267.32 -6010.65c-280.78,72.39 -518.07,206.3 -680.59,450.42 -547.27,822.07 144.63,1959.92 1179.15,1726.34 527.01,-118.98 992.85,-673.66 833.88,-1344.44 -121.65,-513.35 -659.55,-1005.81 -1332.44,-832.32zm518.1 1687.47c-77.25,-134.82 -720.95,-753.61 -859.68,-881.46 -5.09,4.63 -11.98,5.75 -13.88,15.29 -1.87,9.42 -10.72,11.83 -13.16,15.54l-54.43 153.39c-10.95,83.48 -9.3,163.55 7.36,246.08 95.33,472.15 695.54,646.86 933.79,451.16zm-556.2 -1187.24l871.12 868.65 50 -79.37c39.42,-93.99 40.18,-242.13 20.76,-340.86 -99.78,-507.33 -750.61,-668.08 -941.88,-448.42zm-1294.54 3228.39c305.59,-103.87 456.67,-247.88 872.48,-118.53 504.51,156.93 541.04,620.24 1054.97,189.76 95.05,-79.62 210.72,-144.51 356.68,-189.73 413.46,-128.08 570.16,17.16 866.24,116.2l2.61 -1026.75c-217.58,133.31 -237.95,241.26 -651.92,429.77 -746.04,339.71 -1720.31,236.79 -2349.37,-301.31 -68.91,-58.94 -70.16,-86.19 -148.98,-124.98l-2.71 1025.57zm-450.76 2280.04c34.38,-556.76 3.99,-1213.49 3.99,-1781.19 0,-596.13 0.01,-1192.25 0,-1788.37 0,-246.69 -77.41,-663.79 234.84,-647.35 210.46,11.07 218.08,252.59 431.67,476.9 317.57,333.5 676.76,563.06 1177.19,608.93 611.59,56.07 1007.83,-161.58 1357.75,-428.61 303.71,-231.77 84.79,-235.59 637.64,-235.12 1451.34,1.23 3075.59,39.96 4482.4,-2.09l-1.44 -902.26c-1271.84,-25.72 -2805.6,-6.78 -4118.39,-0.52 -664.2,3.17 -164.17,-395.94 -632.22,-1140.07 -166.55,-264.78 -334.75,-437.25 -587.83,-604.67 -527.9,-349.21 -1251.64,-365.68 -1846.46,-62.43 -674.45,343.85 -889.85,422.07 -1375.72,983.26 -328.79,379.77 -632.01,1023.29 -658.18,1695.1 -29.89,766.87 -3.68,1585.79 -3.72,2358.32 -0.02,418.83 -16.9,695.48 191.45,999.88 133.66,195.26 401.04,417.56 707.03,470.29zm3407.95 -6705.48c645.38,618.45 349.96,447.5 668.41,843.7l4234.88 -600.42 15.31 -901.69 -4918.6 658.41z"/>
  <path class="fil3" d="M-9141.7 25581.89l-1788.54 0 0 -3186.46 1717.25 0 0 449.03 -1188.57 0 0 901.86 1095.27 0 0 446.76 -1095.27 0 0 942.05 1259.86 0 0 446.76zm2410.51 -2275.5l-757.74 1151.4 749.4 1124.1 -598.46 0 -399.72 -704.65c-25.04,-42.47 -54.62,-97.84 -88.75,-164.59l-9.1 0c-6.07,13.65 -37.17,68.26 -93.3,164.59l-406.55 704.65 -595.43 0 772.92 -1115.75 -732.71 -1159.75 599.97 0 392.9 740.3c29.58,54.61 58.41,110.74 86.47,168.38l6.83 0 508.95 -908.68 564.32 0zm1577.68 2251.23c-100.12,50.06 -232.86,75.09 -397.45,75.09 -441.45,0 -662.17,-211.62 -662.17,-635.62l0 -1286.42 -380.01 0 0 -404.28 380.01 0 0 -526.4 515.78 -147.15 0 673.55 543.84 0 0 404.28 -543.84 0 0 1137.75c0,135.01 24.27,231.34 72.82,288.99 49.3,57.65 130.46,86.47 244.99,86.47 87.23,0 162.32,-25.03 226.03,-75.09l0 408.83zm1765.04 -1760.48c-62.2,-48.54 -152.46,-72.82 -269.27,-72.82 -152.46,0 -279.89,69.03 -382.29,206.32 -102.39,138.04 -153.21,325.39 -153.21,562.04l0 1089.21 -515.78 0 0 -2275.5 515.78 0 0 468.75 9.1 0c50.06,-160.04 127.43,-284.43 232.1,-374.7 104.67,-89.5 220.72,-134.25 349.67,-134.25 93.29,0 164.59,14.41 213.9,42.48l0 488.47zm2110.9 1784.75l-499.85 0 0 -355.74 -9.1 0c-157.01,273.06 -386.84,408.83 -690.99,408.83 -223.76,0 -398.98,-60.67 -525.65,-182.03 -126.66,-121.36 -189.62,-282.17 -189.62,-482.41 0,-429.31 247.27,-679.62 741.81,-750.92l675.83 -95.57c0,-324.63 -153.98,-486.95 -462.69,-486.95 -270.78,0 -515.02,94.05 -732.71,280.64l0 -451.31c239.69,-142.59 516.54,-213.13 830.56,-213.13 574.94,0 862.41,282.92 862.41,848.76l0 1479.83zm-497.57 -1118.03l-477.86 66.75c-147.91,19.72 -259.41,55.37 -334.5,107.71 -75.09,53.09 -112.26,144.87 -112.26,276.85 0,96.33 34.9,175.21 103.16,236.65 69.02,61.44 161.56,92.54 276.85,92.54 157.01,0 287.47,-55.37 389.87,-166.11 103.16,-109.99 154.74,-248.79 154.74,-416.42l0 -197.97zm2326.31 1093.76c-100.12,50.06 -232.86,75.09 -397.45,75.09 -441.45,0 -662.17,-211.62 -662.17,-635.62l0 -1286.42 -380.01 0 0 -404.28 380.01 0 0 -526.4 515.78 -147.15 0 673.55 543.84 0 0 404.28 -543.84 0 0 1137.75c0,135.01 24.27,231.34 72.82,288.99 49.3,57.65 130.46,86.47 244.99,86.47 87.23,0 162.32,-25.03 226.03,-75.09l0 408.83zm1426.74 77.36c-350.43,0 -631.07,-106.18 -840.42,-318.56 -210.1,-212.38 -314.77,-494.55 -314.77,-845.73 0,-382.29 109.22,-680.38 327.67,-895.79 218.45,-214.66 512.74,-321.6 883.65,-321.6 355.74,0 632.59,103.91 830.56,313.26 198.73,208.58 298.09,498.33 298.09,868.48 0,363.32 -106.95,653.83 -320.85,872.27 -214.65,218.45 -502.12,327.67 -863.93,327.67zm25.03 -1970.58c-201.76,0 -361.04,69.78 -477.85,210.87 -116.81,141.08 -175.97,334.49 -175.97,582.52 0,238.17 59.92,426.28 178.24,562.81 118.33,137.29 276.86,205.55 475.58,205.55 202.52,0 358.77,-67.5 467.24,-201.76 109.22,-135.01 163.83,-326.91 163.83,-575.7 0,-250.3 -54.61,-443.72 -163.83,-580.25 -108.47,-136.53 -264.72,-204.04 -467.24,-204.04zm3004.43 132.74c-62.2,-48.54 -152.46,-72.82 -269.27,-72.82 -152.46,0 -279.89,69.03 -382.29,206.32 -102.39,138.04 -153.21,325.39 -153.21,562.04l0 1089.21 -515.78 0 0 -2275.5 515.78 0 0 468.75 9.1 0c50.06,-160.04 127.43,-284.43 232.1,-374.7 104.67,-89.5 220.72,-134.25 349.67,-134.25 93.29,0 164.59,14.41 213.9,42.48l0 488.47zm2199.65 629.55l0 1155.2 -526.4 0 0 -3186.46 966.33 0c365.6,0 649.28,84.95 851.04,255.62 201.76,169.9 302.64,410.34 302.64,719.81 0,309.47 -105.43,562.81 -316.3,760.02 -210.1,197.21 -494.54,295.81 -853.31,295.81l-424 0zm0 -1595.88l0 1164.3 342.08 0c226.8,0 398.97,-52.34 518.06,-157.77 118.33,-104.67 177.49,-253.34 177.49,-444.48 0,-374.7 -217.69,-562.05 -653.07,-562.05l-384.56 0zm4835.44 2751.08l-577.98 0 -1521.55 -2342.25c-38.68,-59.16 -70.54,-120.6 -95.57,-184.31l-13.65 0c12.13,68.26 17.44,213.89 17.44,437.65l0 2088.91 -510.47 0 0 -3186.46 615.14 0 1471.49 2286.12c62.2,94.81 101.64,160.04 119.85,195.69l9.1 0c-15.17,-84.19 -22.76,-227.55 -22.76,-428.55l0 -2053.26 508.96 0 0 3186.46zm1316 -1155.2l0 1155.2 -526.4 0 0 -3186.46 966.33 0c365.6,0 649.28,84.95 851.04,255.62 201.76,169.9 302.64,410.34 302.64,719.81 0,309.47 -105.43,562.81 -316.3,760.02 -210.1,197.21 -494.54,295.81 -853.31,295.81l-424 0zm0 -1595.88l0 1164.3 342.08 0c226.8,0 398.97,-52.34 518.06,-157.77 118.33,-104.67 177.49,-253.34 177.49,-444.48 0,-374.7 -217.69,-562.05 -653.07,-562.05l-384.56 0z"/>
 </g>
</svg>
